<?xml version="1.0" standalone="no"?>
<svg xmlns="http://www.w3.org/2000/svg" viewBox="0 0 219.961 36" width="219.961" height="36"><g fill="#69a38e" color="#69a38e" transform="translate(191.961, 3.9999999999999982) scale(0.2800001)"><svg width="100.0" height="100.0" x="0.0" y="0.0" viewBox="0 0 100 100"><path d="M42.793,20.007c0,0-0.369,0.429-0.737,1.129C42.058,21.138,42.955,21.225,42.793,20.007z"></path><path fill="currentColor" d="M145.922,45.073c-0.115-0.055-0.275-0.115-0.461-0.176c0.157,0.057,0.309,0.116,0.459,0.176  C145.922,45.073,145.922,45.073,145.922,45.073z"></path><g><path d="M64.119,24.702c0.365-2.023-0.01-3.758-1.117-5.158c-2.596-3.281-8.281-3.624-8.883-3.653   c-4.539-1.672-8.212-1.876-10.918-0.606c-2.068,0.97-2.88,2.499-3.094,2.98c-0.287,0.054-0.571,0.12-0.851,0.194   c-1.591-1.49-3.344-4.392-4.383-10.032c0,0,0.458-0.809,0.277-2.556c0,0-1.94-0.315-1.62,1.671c0,0,1.004,6.544,5.275,11.045   c-2.726,0.852-4.922,2.588-5.331,2.925c-2.02,0.066-4.089,0.181-6.215,0.361l-3.186,40.316l52.944-33.115   C77.018,29.074,72.35,26.776,64.119,24.702z M61.499,31.58c0,0-0.36,8.281-12.347,6.1c0,0-7.243,4.322-10.348-2.682   c-2.478,1.71-7.027-0.096-5.391-5.149c-0.569-0.71-2.812-4.938,0.759-8.204c0.828-0.624,2.794-1.974,5.058-2.626   c0.011,0.012,0.022,0.023,0.033,0.033c0.818,0.789,1.742,1.502,2.792,2.084l0,0c-0.045,0.085-0.089,0.176-0.133,0.271l0,0   c-0.001,0.003-0.002,0.007-0.004,0.009c-0.02,0.043-0.041,0.081-0.06,0.127c0.002,0,0.003,0,0.005,0   c-0.47,1.114-0.835,2.775-0.083,4.388c0,0,8.168,7.157,12.302,1.215c0,0,0.857-2.242,0.309-4.572   c-0.015-0.003-0.031-0.005-0.045-0.006c-0.449-1.694-1.662-3.499-4.502-4.725c0,0-4.25-2.428-7.053,2.166   c0,0.007,0,0.012,0.001,0.019c-0.554-0.019-1.785-0.173-3.012-1.117c-0.011-0.009-0.02-0.018-0.03-0.025   c0.194-0.046,0.391-0.085,0.589-0.118l0.155-0.025l0.052-0.149c0.007-0.016,0.666-1.794,2.894-2.832   c2.579-1.203,6.123-0.985,10.533,0.646l0.039,0.016l0.043,0.002c0.061,0.001,5.993,0.252,8.528,3.453   c1.005,1.271,1.344,2.856,1.013,4.716c-0.125,0.548-0.316,1.132-0.582,1.758C63.016,26.349,67.562,30.427,61.499,31.58z"></path><polygon points="25.351,74.245 76.001,40.29 77.018,29.932 24.073,63.087  "></polygon><polygon points="26.992,93.23 74.834,57.207 75.48,47.83 26.038,82.18  "></polygon></g></svg></g><path fill="#295c3c" fill-rule="nonzero" d="M12.02 17.71L0 17.71L0 17.18L1.80 17.06L1.80 1.63L0 1.51L0 0.98L11.54 0.98L11.66 5.75L11.17 5.75Q11.03 4.96 10.87 4.40Q10.71 3.84 10.42 3.28Q10.13 2.72 9.73 2.38Q9.34 2.05 8.72 1.84Q8.11 1.63 7.30 1.63L7.30 1.63Q6.30 1.63 4.80 1.75L4.80 1.75L4.80 8.71Q5.16 8.74 6.08 8.74L6.08 8.74Q7.31 8.74 7.84 8.14Q8.37 7.54 8.37 5.94L8.37 5.94L9.01 5.94L9.01 12.23L8.37 12.23Q8.37 10.64 7.83 10.01Q7.30 9.39 6.08 9.39L6.08 9.39Q5.18 9.39 4.80 9.42L4.80 9.42L4.80 16.95Q6.30 17.06 7.78 17.06L7.78 17.06Q8.47 17.06 9 16.95Q9.53 16.84 9.91 16.58Q10.30 16.32 10.57 16.00Q10.84 15.68 11.04 15.18Q11.25 14.67 11.38 14.17Q11.51 13.66 11.65 12.93L11.65 12.93L12.15 12.93L12.02 17.71ZM15.25 1.91L13.80 1.91L13.80 1.43L16.25 1.17L17.91 0.74L18.12 1.08L18.12 17.11L19.32 17.23L19.32 17.71L14.04 17.71L14.04 17.23L15.25 17.11L15.25 1.91ZM27.56 6.88L26.12 6.88L26.12 6.40L28.57 6.14L30.22 5.71L30.39 6.05L30.39 8.06L30.43 8.06Q30.67 7.59 31.01 7.15Q31.35 6.70 31.75 6.36Q32.16 6.01 32.61 5.80Q33.07 5.59 33.54 5.59L33.54 5.59Q34.45 5.59 34.95 6.08Q35.45 6.56 35.45 7.37L35.45 7.37Q35.45 7.71 35.34 8.00Q35.24 8.29 35.04 8.50Q34.85 8.71 34.58 8.83Q34.30 8.95 33.97 8.95L33.97 8.95Q33.62 8.95 33.34 8.84Q33.06 8.72 32.87 8.52Q32.67 8.32 32.57 8.06Q32.46 7.79 32.46 7.49L32.46 7.49Q32.46 6.87 32.72 6.57L32.72 6.57L32.72 6.50Q32.30 6.60 31.89 6.95Q31.49 7.30 31.16 7.90Q30.83 8.51 30.63 9.36Q30.43 10.21 30.43 11.27L30.43 11.27L30.43 17.11L31.64 17.23L31.64 17.71L26.36 17.71L26.36 17.23L27.56 17.11L27.56 6.88ZM36.47 11.82L36.47 11.82Q36.47 10.91 36.64 10.04Q36.82 9.16 37.22 8.36Q37.62 7.55 38.19 6.94Q38.77 6.33 39.62 5.96Q40.46 5.59 41.50 5.59L41.50 5.59Q42.47 5.59 43.24 5.87Q44.02 6.14 44.53 6.63Q45.05 7.13 45.39 7.83Q45.73 8.54 45.87 9.37Q46.02 10.20 46.02 11.18L46.02 11.18L45.70 11.47L39.47 11.47L39.47 12.19Q39.47 17.30 42.38 17.30L42.38 17.30Q44.44 17.30 45.67 15.23L45.67 15.23L46.13 15.52Q44.61 18.06 41.82 18.06L41.82 18.06Q39.13 18.06 37.80 16.39Q36.47 14.73 36.47 11.82ZM39.47 10.95L39.47 10.95L43.25 10.79Q43.29 10.20 43.29 9.64L43.29 9.64Q43.29 7.95 42.88 7.03Q42.48 6.12 41.54 6.12L41.54 6.12Q40.98 6.12 40.58 6.49Q40.17 6.86 39.95 7.55Q39.73 8.24 39.62 9.05Q39.50 9.87 39.47 10.95ZM49.14 6.88L47.70 6.88L47.70 6.40L50.14 6.14L51.80 5.71L52.01 6.05L52.01 17.11L53.21 17.23L53.21 17.71L47.93 17.71L47.93 17.23L49.14 17.11L49.14 6.88ZM48.97 1.55L48.97 1.55Q48.97 1.22 49.10 0.94Q49.22 0.66 49.43 0.45Q49.64 0.23 49.92 0.12Q50.20 0 50.52 0L50.52 0Q50.84 0 51.12 0.12Q51.40 0.25 51.62 0.46Q51.83 0.67 51.96 0.95Q52.08 1.23 52.08 1.55L52.08 1.55Q52.08 1.86 51.96 2.14Q51.83 2.43 51.62 2.64Q51.41 2.86 51.13 2.98Q50.85 3.11 50.52 3.11L50.52 3.11Q50.19 3.11 49.91 2.98Q49.63 2.86 49.42 2.65Q49.21 2.44 49.09 2.16Q48.97 1.88 48.97 1.55ZM54.57 6.88L54.55 6.40L57 6.14L58.65 5.71L58.86 6.05L58.82 7.63L58.86 7.63Q60.26 5.59 62.47 5.59L62.47 5.59Q62.89 5.59 63.28 5.66Q63.67 5.73 64.14 5.98Q64.61 6.22 64.95 6.62Q65.29 7.02 65.52 7.76Q65.75 8.50 65.75 9.48L65.75 9.48L65.75 17.11L66.95 17.23L66.95 17.71L61.68 17.71L61.68 17.23L62.87 17.11L62.87 9.14Q62.87 6.64 61.27 6.64L61.27 6.64Q60.21 6.64 59.54 7.61Q58.86 8.57 58.86 10.13L58.86 10.13L58.86 17.11L60.07 17.23L60.07 17.71L54.79 17.71L54.79 17.23L55.99 17.11L55.99 6.86L54.57 6.88ZM68.47 11.89L68.47 11.89Q68.47 10.13 69.16 8.68Q69.84 7.24 71.08 6.42Q72.32 5.59 73.88 5.59L73.88 5.59Q75.16 5.59 76.20 6.12Q77.24 6.66 77.87 7.55Q78.49 8.44 78.83 9.53Q79.16 10.63 79.16 11.82L79.16 11.82Q79.16 13.55 78.50 14.96Q77.85 16.38 76.62 17.22Q75.40 18.06 73.85 18.06L73.85 18.06Q72.48 18.06 71.43 17.57Q70.38 17.09 69.74 16.22Q69.11 15.36 68.79 14.27Q68.47 13.18 68.47 11.89ZM71.47 11.75L71.47 11.75Q71.47 13.05 71.60 14.08Q71.73 15.11 72 15.90Q72.27 16.69 72.73 17.11Q73.18 17.53 73.80 17.53L73.80 17.53Q76.16 17.53 76.16 11.89L76.16 11.89Q76.16 10.48 76.05 9.46Q75.94 8.44 75.67 7.66Q75.41 6.88 74.94 6.50Q74.47 6.12 73.80 6.12L73.80 6.12Q73.18 6.12 72.73 6.54Q72.27 6.96 72 7.73Q71.73 8.51 71.60 9.50Q71.47 10.50 71.47 11.75ZM86.47 12.12L86.47 12.12Q86.47 11.10 86.66 10.16Q86.85 9.22 87.26 8.38Q87.67 7.55 88.27 6.93Q88.86 6.32 89.74 5.95Q90.61 5.59 91.66 5.59L91.66 5.59Q92.11 5.59 92.71 5.74Q93.32 5.88 93.68 6.19L93.68 6.19L93.68 1.91L92.24 1.91L92.24 1.43L94.69 1.17L96.34 0.74L96.56 1.08L96.56 17.11L97.76 17.23L97.76 17.71L93.84 17.71L93.69 16.04L93.67 16.04Q92.99 17.20 92.25 17.63Q91.51 18.06 90.48 18.06L90.48 18.06Q90.21 18.06 89.91 18Q89.60 17.94 89.20 17.77Q88.80 17.60 88.44 17.34Q88.07 17.07 87.70 16.61Q87.34 16.14 87.07 15.54Q86.80 14.94 86.64 14.06Q86.47 13.17 86.47 12.12ZM89.47 12L89.47 12Q89.47 17.07 91.57 17.07L91.57 17.07Q92.40 17.07 93.04 16.08Q93.68 15.08 93.68 13.95L93.68 13.95L93.68 6.76Q93.01 6.26 92.19 6.26L92.19 6.26Q91.65 6.26 91.22 6.48Q90.80 6.70 90.52 7.04Q90.23 7.38 90.04 7.90Q89.84 8.43 89.73 8.91Q89.63 9.39 89.56 10.01Q89.50 10.63 89.48 11.05Q89.47 11.47 89.47 12ZM99.42 11.82L99.42 11.82Q99.42 10.91 99.60 10.04Q99.77 9.16 100.17 8.36Q100.57 7.55 101.14 6.94Q101.72 6.33 102.57 5.96Q103.42 5.59 104.45 5.59L104.45 5.59Q105.42 5.59 106.20 5.87Q106.97 6.14 107.48 6.63Q108 7.13 108.34 7.83Q108.68 8.54 108.83 9.37Q108.97 10.20 108.97 11.18L108.97 11.18L108.66 11.47L102.42 11.47L102.42 12.19Q102.42 17.30 105.33 17.30L105.33 17.30Q107.39 17.30 108.62 15.23L108.62 15.23L109.08 15.52Q107.57 18.06 104.78 18.06L104.78 18.06Q102.08 18.06 100.75 16.39Q99.42 14.73 99.42 11.82ZM102.42 10.95L102.42 10.95L106.21 10.79Q106.24 10.20 106.24 9.64L106.24 9.64Q106.24 7.95 105.84 7.03Q105.43 6.12 104.50 6.12L104.50 6.12Q103.93 6.12 103.53 6.49Q103.13 6.86 102.90 7.55Q102.68 8.24 102.57 9.05Q102.46 9.87 102.42 10.95ZM111.90 1.91L110.46 1.91L110.46 1.43L112.91 1.17L114.56 0.74L114.77 1.08L114.77 17.11L115.98 17.23L115.98 17.71L110.70 17.71L110.70 17.23L111.90 17.11L111.90 1.91ZM124.09 6.88L122.65 6.88L122.65 6.40L125.10 6.14L126.75 5.71L126.91 6.05L126.91 7.57L126.96 7.57Q127.63 6.43 128.37 6.01Q129.11 5.59 130.14 5.59L130.14 5.59Q130.41 5.59 130.71 5.65Q131.02 5.71 131.42 5.88Q131.82 6.05 132.20 6.32Q132.57 6.59 132.94 7.07Q133.31 7.55 133.58 8.16Q133.85 8.78 134.02 9.69Q134.19 10.61 134.19 11.71L134.19 11.71Q134.19 13.03 133.86 14.16Q133.54 15.29 132.90 16.17Q132.27 17.05 131.24 17.55Q130.21 18.06 128.88 18.06L128.88 18.06Q127.72 18.06 126.96 17.46L126.96 17.46L126.96 22.68L128.17 22.79L128.17 23.27L122.88 23.27L122.88 22.79L124.09 22.68L124.09 6.88ZM126.96 9.64L126.96 16.84Q127.63 17.44 128.40 17.44L128.40 17.44Q128.96 17.44 129.40 17.21Q129.84 16.99 130.13 16.66Q130.42 16.34 130.63 15.80Q130.84 15.27 130.95 14.79Q131.05 14.32 131.11 13.66Q131.17 13.01 131.18 12.57Q131.19 12.14 131.19 11.54L131.19 11.54Q131.19 9.64 130.92 8.50Q130.65 7.36 130.22 6.94Q129.79 6.53 129.13 6.53L129.13 6.53Q128.21 6.53 127.59 7.49Q126.96 8.45 126.96 9.64L126.96 9.64ZM136.01 15.16L136.01 15.16Q136.01 14.59 136.19 14.06Q136.37 13.52 136.78 13.03Q137.19 12.54 137.79 12.18Q138.39 11.81 139.27 11.60Q140.16 11.38 141.23 11.38L141.23 11.38Q141.81 11.38 142.32 11.43L142.32 11.43L142.32 9.81Q142.32 9.04 142.29 8.55Q142.27 8.07 142.15 7.56Q142.03 7.05 141.81 6.78Q141.60 6.50 141.21 6.32Q140.81 6.14 140.25 6.14L140.25 6.14Q138.54 6.14 137.75 7.49L137.75 7.49L137.75 7.54Q137.95 7.50 138.12 7.50L138.12 7.50Q138.73 7.50 139.08 7.88Q139.43 8.25 139.43 8.95L139.43 8.95Q139.43 9.56 139.01 9.98Q138.59 10.39 137.95 10.39L137.95 10.39Q137.26 10.39 136.86 9.93Q136.46 9.46 136.46 8.82L136.46 8.82Q136.46 7.44 137.74 6.52Q139.01 5.59 140.66 5.59L140.66 5.59Q141.83 5.59 142.66 5.84Q143.48 6.08 143.98 6.49Q144.47 6.89 144.74 7.59Q145.02 8.29 145.11 9.01Q145.20 9.74 145.20 10.79L145.20 10.79L145.20 17.11L146.40 17.23L146.40 17.71L142.68 17.71L142.35 15.86L142.32 15.86Q141.75 16.97 140.94 17.51Q140.12 18.06 138.96 18.06L138.96 18.06Q137.53 18.06 136.77 17.20Q136.01 16.35 136.01 15.16ZM138.84 14.92L138.84 14.92Q138.84 15.86 139.20 16.44Q139.55 17.02 140.23 17.02L140.23 17.02Q141.02 17.02 141.67 16.02Q142.32 15.02 142.32 13.58L142.32 13.58L142.32 11.96Q141.86 11.91 141.56 11.91L141.56 11.91Q140.95 11.91 140.48 12.07Q140.00 12.23 139.72 12.52Q139.44 12.80 139.25 13.11Q139.07 13.42 138.98 13.79Q138.90 14.17 138.87 14.41Q138.84 14.66 138.84 14.92ZM151.85 17.48L151.85 17.48Q153.19 17.48 153.83 16.99Q154.46 16.50 154.46 15.76L154.46 15.76Q154.46 15.38 154.34 15.08Q154.22 14.78 153.94 14.50Q153.67 14.23 153.22 13.94Q152.77 13.65 152.10 13.29L152.10 13.29Q151.51 12.95 150.86 12.58Q150.20 12.21 149.64 11.72Q149.09 11.24 148.72 10.59Q148.35 9.95 148.35 9.05L148.35 9.05Q148.35 8.25 148.65 7.61Q148.96 6.96 149.50 6.51Q150.05 6.06 150.80 5.81Q151.56 5.57 152.46 5.57L152.46 5.57Q153.14 5.57 153.83 5.74Q154.51 5.91 155.06 6.25Q155.61 6.59 155.95 7.09Q156.29 7.59 156.29 8.26L156.29 8.26Q156.29 8.52 156.21 8.77Q156.12 9.01 155.94 9.21Q155.77 9.41 155.51 9.53Q155.26 9.66 154.93 9.66L154.93 9.66Q154.25 9.66 153.91 9.28Q153.57 8.91 153.57 8.37L153.57 8.37Q153.57 8.03 153.67 7.79Q153.76 7.55 153.92 7.39Q154.08 7.23 154.28 7.15Q154.49 7.08 154.70 7.08L154.70 7.08L154.80 7.08L154.80 7.05Q154.69 6.87 154.46 6.70Q154.24 6.53 153.94 6.39Q153.63 6.26 153.26 6.18Q152.88 6.09 152.46 6.09L152.46 6.09Q151.84 6.09 151.41 6.26Q150.97 6.42 150.70 6.67Q150.42 6.93 150.29 7.23Q150.16 7.54 150.16 7.82L150.16 7.82Q150.16 8.16 150.27 8.40Q150.38 8.65 150.64 8.90Q150.90 9.15 151.37 9.45Q151.83 9.74 152.53 10.15L152.53 10.15Q153.21 10.50 153.97 10.90Q154.72 11.30 155.36 11.82Q155.99 12.34 156.40 13.01Q156.82 13.69 156.82 14.59L156.82 14.59Q156.82 15.35 156.53 15.98Q156.25 16.62 155.64 17.07Q155.04 17.53 154.11 17.78Q153.18 18.04 151.90 18.04L151.90 18.04Q151.29 18.04 150.60 17.88Q149.91 17.73 149.32 17.40Q148.73 17.06 148.35 16.53Q147.96 16.00 147.96 15.22L147.96 15.22Q147.96 14.89 148.07 14.59Q148.17 14.29 148.37 14.04Q148.56 13.80 148.84 13.66Q149.12 13.52 149.48 13.52L149.48 13.52Q149.80 13.52 150.05 13.63Q150.29 13.75 150.46 13.93Q150.63 14.11 150.73 14.36Q150.82 14.60 150.83 14.88L150.83 14.88Q150.83 15.21 150.71 15.46Q150.60 15.71 150.41 15.88Q150.22 16.04 149.98 16.13Q149.74 16.22 149.51 16.22L149.51 16.22Q149.46 16.22 149.41 16.22Q149.36 16.22 149.31 16.21L149.31 16.21L149.31 16.23Q149.41 16.46 149.63 16.69Q149.84 16.91 150.16 17.09Q150.48 17.26 150.91 17.37Q151.34 17.48 151.85 17.48ZM159.68 6.55L157.69 6.45L157.69 5.94L159.68 5.94L159.68 3.35L160.69 3.25L162.34 2.81L162.56 3.15L162.56 5.94L165.13 5.94L165.13 6.45L162.56 6.55L162.56 14.80Q162.56 15.52 162.73 15.99Q162.90 16.46 163.18 16.64Q163.45 16.82 163.62 16.86Q163.79 16.91 163.98 16.91L163.98 16.91Q164.34 16.91 164.68 16.75Q165.01 16.59 165.29 16.29Q165.56 15.98 165.74 15.73Q165.91 15.48 166.14 15.12L166.14 15.12L166.64 15.42Q166.02 16.45 165.56 16.92L165.56 16.92Q164.45 18.06 163.00 18.06L163.00 18.06Q162.45 18.06 162.02 17.98Q161.59 17.91 161.13 17.66Q160.68 17.41 160.37 17.00Q160.07 16.58 159.87 15.85Q159.68 15.12 159.68 14.13L159.68 14.13L159.68 6.55ZM167.40 11.82L167.40 11.82Q167.40 10.91 167.58 10.04Q167.75 9.16 168.15 8.36Q168.55 7.55 169.13 6.94Q169.70 6.33 170.55 5.96Q171.40 5.59 172.43 5.59L172.43 5.59Q173.40 5.59 174.18 5.87Q174.95 6.14 175.46 6.63Q175.98 7.13 176.32 7.83Q176.66 8.54 176.81 9.37Q176.95 10.20 176.95 11.18L176.95 11.18L176.64 11.47L170.40 11.47L170.40 12.19Q170.40 17.30 173.31 17.30L173.31 17.30Q175.37 17.30 176.60 15.23L176.60 15.23L177.06 15.52Q175.55 18.06 172.76 18.06L172.76 18.06Q170.06 18.06 168.73 16.39Q167.40 14.73 167.40 11.82ZM170.40 10.95L170.40 10.95L174.19 10.79Q174.22 10.20 174.22 9.64L174.22 9.64Q174.22 7.95 173.82 7.03Q173.41 6.12 172.48 6.12L172.48 6.12Q171.91 6.12 171.51 6.49Q171.11 6.86 170.88 7.55Q170.66 8.24 170.55 9.05Q170.44 9.87 170.40 10.95ZM179.88 1.91L178.44 1.91L178.44 1.43L180.89 1.17L182.54 0.74L182.75 1.08L182.75 17.11L183.96 17.23L183.96 17.71L178.68 17.71L178.68 17.23L179.88 17.11L179.88 1.91Z" transform="translate(0, 6.364)"></path></svg>